<!DOCTYPE svg PUBLIC "-//W3C//DTD SVG 1.1//EN" "http://www.w3.org/Graphics/SVG/1.1/DTD/svg11.dtd">
<svg xmlns="http://www.w3.org/2000/svg" id="a" data-name="Layer 1" width="24" height="24" viewBox="0 0 24 24" style="height: 32px; width: 32px; fill: rgb(97, 56, 245);">
<path d="M22,11.69c0-4.65-3.77-8.42-8.42-8.42h-3.17C5.77,3.28,2,7.05,2,11.69v.17c0,2.18,.83,4.15,2.19,5.65,.03,.04,.05,.07,.07,.11,1.48,1.9,3.71,3.1,6.21,3.1h3.04c2.5,0,4.73-1.21,6.21-3.1,0-.01,.01-.02,.02-.03,1.4-1.5,2.26-3.51,2.26-5.72v-.17ZM13.58,5.78c1.32,0,2.54,.44,3.53,1.18H6.89c.99-.74,2.2-1.18,3.53-1.18h3.17Z"/>
</svg>