<!DOCTYPE svg PUBLIC "-//W3C//DTD SVG 1.1//EN" "http://www.w3.org/Graphics/SVG/1.1/DTD/svg11.dtd">
<svg xmlns="http://www.w3.org/2000/svg" id="a" data-name="Layer 1" width="24" height="24" viewBox="0 0 24 24" style="height: 32px; width: 32px; fill: rgb(97, 56, 245);">
<path d="M13.58,3.5h-3.17C5.77,3.5,2,7.27,2,11.92v.17c0,4.59,3.68,8.32,8.25,8.41,.04,0,.07,0,.11,0h3.23c4.65,0,8.42-3.77,8.42-8.42v-.17c0-4.65-3.77-8.42-8.42-8.42ZM4.5,11.92c0-3.26,2.65-5.92,5.92-5.92h3.17c3.26,0,5.92,2.65,5.92,5.92v.17c0,.64-.11,1.26-.3,1.84H4.8c-.19-.58-.3-1.2-.3-1.84v-.17Z"/>
</svg>