<!DOCTYPE svg PUBLIC "-//W3C//DTD SVG 1.1//EN" "http://www.w3.org/Graphics/SVG/1.1/DTD/svg11.dtd">
<svg xmlns="http://www.w3.org/2000/svg" id="a" data-name="Layer 1" width="24" height="24" viewBox="0 0 24 24" style="height: 32px; width: 32px; fill: rgb(97, 56, 245);">
<path d="M13.58,3.38h-3.17C5.77,3.38,2,7.15,2,11.8v.17c0,3.05,1.63,5.71,4.05,7.19,1.33,.94,2.89,1.47,4.52,1.47h2.97c1.93,0,3.78-.74,5.25-2.05,1.95-1.54,3.21-3.92,3.21-6.6v-.17c0-4.65-3.77-8.42-8.42-8.42Zm-3.17,2.5h3.17c2.5,0,4.64,1.56,5.51,3.76H4.91c.86-2.2,3-3.76,5.51-3.76Z"/>
</svg>